<mxfile host="app.diagrams.net" modified="2023-01-23T21:54:34.419Z" agent="5.0 (Windows NT 10.0; Win64; x64) AppleWebKit/537.36 (KHTML, like Gecko) Chrome/109.0.0.0 Safari/537.36" version="20.8.5" etag="pCRz41hcvhBoThYFHH1l" type="github">
  <diagram id="HB3tD9yMSWwXWPu6Mqnb" name="Página-1">
    <mxGraphModel dx="677" dy="336" grid="0" gridSize="10" guides="1" tooltips="1" connect="1" arrows="1" fold="1" page="1" pageScale="1" pageWidth="1169" pageHeight="827" math="0" shadow="0">
      <root>
        <mxCell id="0" />
        <mxCell id="1" parent="0" />
        <mxCell id="4adj82tTuQm2GllREpJ7-3" value="filepath_or_buffer&lt;br style=&quot;font-size: 14px;&quot;&gt;sep&lt;br style=&quot;font-size: 14px;&quot;&gt;encoding" style="rounded=1;whiteSpace=wrap;html=1;strokeWidth=2;fillWeight=4;hachureGap=8;hachureAngle=45;fillColor=#1ba1e2;sketch=1;strokeColor=default;opacity=20;fontStyle=1;fontSize=14;align=left;fontFamily=Comic Sans MS;" vertex="1" parent="1">
          <mxGeometry x="100" y="148" width="180" height="60" as="geometry" />
        </mxCell>
        <mxCell id="4adj82tTuQm2GllREpJ7-4" value="&lt;h1 style=&quot;border-color: var(--border-color); color: rgb(0, 0, 0); font-style: normal; font-variant-ligatures: normal; font-variant-caps: normal; letter-spacing: normal; orphans: 2; text-indent: 0px; text-transform: none; widows: 2; word-spacing: 0px; -webkit-text-stroke-width: 0px; background-color: rgb(251, 251, 251); text-decoration-thickness: initial; text-decoration-style: initial; text-decoration-color: initial; font-size: 16px;&quot;&gt;&lt;span style=&quot;font-weight: normal;&quot;&gt;pd.read_csv()&lt;/span&gt;&lt;br&gt;&lt;/h1&gt;" style="text;whiteSpace=wrap;html=1;fontSize=16;align=center;fontFamily=Comic Sans MS;" vertex="1" parent="1">
          <mxGeometry x="20" y="105" width="250" height="20" as="geometry" />
        </mxCell>
        <mxCell id="4adj82tTuQm2GllREpJ7-5" value="&lt;h1 style=&quot;border-color: var(--border-color); color: rgb(0, 0, 0); font-style: normal; font-variant-ligatures: normal; font-variant-caps: normal; letter-spacing: normal; orphans: 2; text-indent: 0px; text-transform: none; widows: 2; word-spacing: 0px; -webkit-text-stroke-width: 0px; background-color: rgb(251, 251, 251); text-decoration-thickness: initial; text-decoration-style: initial; text-decoration-color: initial; font-size: 16px;&quot;&gt;Data Importing&lt;/h1&gt;" style="text;whiteSpace=wrap;html=1;fontSize=16;align=center;fontFamily=Comic Sans MS;" vertex="1" parent="1">
          <mxGeometry x="65" y="78" width="250" height="20" as="geometry" />
        </mxCell>
        <mxCell id="4adj82tTuQm2GllREpJ7-6" value="&lt;b&gt;filepath_or_buffer &lt;/b&gt;- dado que será importado;&lt;br&gt;&lt;b&gt;sep &lt;/b&gt;- delimitador de coluna;&lt;br&gt;&lt;b&gt;encoding &lt;/b&gt;- códificação dos dados." style="text;whiteSpace=wrap;html=1;fontSize=16;fontFamily=Comic Sans MS;" vertex="1" parent="1">
          <mxGeometry x="40" y="210" width="330" height="60" as="geometry" />
        </mxCell>
        <mxCell id="4adj82tTuQm2GllREpJ7-7" value="filepath_or_buffer&lt;br&gt;usecols&lt;br style=&quot;font-size: 14px;&quot;&gt;sep&lt;br style=&quot;font-size: 14px;&quot;&gt;encoding" style="rounded=1;whiteSpace=wrap;html=1;strokeWidth=2;fillWeight=4;hachureGap=8;hachureAngle=45;fillColor=#1ba1e2;sketch=1;strokeColor=default;opacity=20;fontStyle=1;fontSize=14;align=left;fontFamily=Comic Sans MS;" vertex="1" parent="1">
          <mxGeometry x="436" y="148" width="188" height="72" as="geometry" />
        </mxCell>
        <mxCell id="4adj82tTuQm2GllREpJ7-8" value="&lt;h1 style=&quot;border-color: var(--border-color); color: rgb(0, 0, 0); font-style: normal; font-variant-ligatures: normal; font-variant-caps: normal; letter-spacing: normal; orphans: 2; text-indent: 0px; text-transform: none; widows: 2; word-spacing: 0px; -webkit-text-stroke-width: 0px; background-color: rgb(251, 251, 251); text-decoration-thickness: initial; text-decoration-style: initial; text-decoration-color: initial; font-size: 16px;&quot;&gt;&lt;span style=&quot;font-weight: normal;&quot;&gt;pd.read_csv()&lt;/span&gt;&lt;br&gt;&lt;/h1&gt;" style="text;whiteSpace=wrap;html=1;fontSize=16;align=center;fontFamily=Comic Sans MS;" vertex="1" parent="1">
          <mxGeometry x="356" y="105" width="250" height="20" as="geometry" />
        </mxCell>
        <mxCell id="4adj82tTuQm2GllREpJ7-9" value="&lt;h1 style=&quot;border-color: var(--border-color); color: rgb(0, 0, 0); font-style: normal; font-variant-ligatures: normal; font-variant-caps: normal; letter-spacing: normal; orphans: 2; text-indent: 0px; text-transform: none; widows: 2; word-spacing: 0px; -webkit-text-stroke-width: 0px; background-color: rgb(251, 251, 251); text-decoration-thickness: initial; text-decoration-style: initial; text-decoration-color: initial; font-size: 16px;&quot;&gt;Data Importing&lt;/h1&gt;" style="text;whiteSpace=wrap;html=1;fontSize=16;align=center;fontFamily=Comic Sans MS;" vertex="1" parent="1">
          <mxGeometry x="401" y="78" width="250" height="20" as="geometry" />
        </mxCell>
        <mxCell id="4adj82tTuQm2GllREpJ7-10" value="&lt;b&gt;filepath_or_buffer &lt;/b&gt;- dado que será importado;&lt;br&gt;&lt;b&gt;usecols &lt;/b&gt;- define as colunas conforme posição;&lt;br&gt;&lt;b&gt;sep &lt;/b&gt;- delimitador de coluna;&lt;br&gt;&lt;b&gt;encoding &lt;/b&gt;- códificação dos dados." style="text;whiteSpace=wrap;html=1;fontSize=16;fontFamily=Comic Sans MS;" vertex="1" parent="1">
          <mxGeometry x="376" y="219" width="330" height="60" as="geometry" />
        </mxCell>
        <mxCell id="4adj82tTuQm2GllREpJ7-12" value="colunas&lt;br&gt;dtype&lt;br style=&quot;font-size: 14px;&quot;&gt;usecols&lt;br style=&quot;font-size: 14px;&quot;&gt;sep&lt;br&gt;encoding&lt;br&gt;header&lt;br&gt;parse_dates" style="rounded=1;whiteSpace=wrap;html=1;strokeWidth=2;fillWeight=4;hachureGap=8;hachureAngle=45;fillColor=#1ba1e2;sketch=1;strokeColor=default;opacity=20;fontStyle=1;fontSize=14;align=left;fontFamily=Comic Sans MS;" vertex="1" parent="1">
          <mxGeometry x="131" y="459" width="188" height="127" as="geometry" />
        </mxCell>
        <mxCell id="4adj82tTuQm2GllREpJ7-13" value="&lt;h1 style=&quot;border-color: var(--border-color); color: rgb(0, 0, 0); font-style: normal; font-variant-ligatures: normal; font-variant-caps: normal; letter-spacing: normal; orphans: 2; text-indent: 0px; text-transform: none; widows: 2; word-spacing: 0px; -webkit-text-stroke-width: 0px; background-color: rgb(251, 251, 251); text-decoration-thickness: initial; text-decoration-style: initial; text-decoration-color: initial; font-size: 16px;&quot;&gt;Arquivo Config.json&lt;/h1&gt;" style="text;whiteSpace=wrap;html=1;fontSize=16;align=center;fontFamily=Comic Sans MS;" vertex="1" parent="1">
          <mxGeometry x="96" y="389" width="250" height="20" as="geometry" />
        </mxCell>
        <mxCell id="4adj82tTuQm2GllREpJ7-14" value="&lt;span style=&quot;font-size: 14px;&quot;&gt;colunas - Nome das Colunas&lt;br style=&quot;border-color: var(--border-color); font-size: 14px;&quot;&gt;&lt;span style=&quot;font-size: 14px;&quot;&gt;dtype - Datatype das Colunas&lt;/span&gt;&lt;br style=&quot;border-color: var(--border-color); font-size: 14px;&quot;&gt;&lt;span style=&quot;font-size: 14px;&quot;&gt;usecols - Colunas segundo posição no arquivo&lt;/span&gt;&lt;br style=&quot;border-color: var(--border-color); font-size: 14px;&quot;&gt;&lt;span style=&quot;font-size: 14px;&quot;&gt;sep - Delimitador de coluna&lt;/span&gt;&lt;br style=&quot;border-color: var(--border-color); font-size: 14px;&quot;&gt;&lt;span style=&quot;font-size: 14px;&quot;&gt;encoding - Configuração da pagina&lt;/span&gt;&lt;br style=&quot;border-color: var(--border-color); font-size: 14px;&quot;&gt;&lt;span style=&quot;font-size: 14px;&quot;&gt;header - Qual linha representa o cabeçalho&lt;/span&gt;&lt;br style=&quot;border-color: var(--border-color); font-size: 14px;&quot;&gt;&lt;span style=&quot;font-size: 14px;&quot;&gt;parse_dates - Qual coluna é do tipo datetime&lt;/span&gt;&lt;/span&gt;" style="text;whiteSpace=wrap;html=1;fontSize=14;fontFamily=Comic Sans MS;fontStyle=1" vertex="1" parent="1">
          <mxGeometry x="60" y="586" width="330" height="60" as="geometry" />
        </mxCell>
        <mxCell id="4adj82tTuQm2GllREpJ7-15" value="&lt;h1 style=&quot;border-color: var(--border-color); orphans: 2; text-indent: 0px; widows: 2; background-color: rgb(251, 251, 251); text-decoration-thickness: initial; text-decoration-style: initial; text-decoration-color: initial; -webkit-text-stroke-width: 0px; word-spacing: 0px; text-transform: none; letter-spacing: normal; font-variant-caps: normal; font-variant-ligatures: normal; font-style: normal; font-size: 16px; color: rgb(0, 0, 0);&quot;&gt;&lt;span style=&quot;font-weight: normal;&quot;&gt;ConfigArquivo&lt;/span&gt;&lt;br&gt;&lt;/h1&gt;" style="text;whiteSpace=wrap;html=1;fontSize=16;align=center;fontFamily=Comic Sans MS;" vertex="1" parent="1">
          <mxGeometry x="54" y="418" width="250" height="20" as="geometry" />
        </mxCell>
        <mxCell id="4adj82tTuQm2GllREpJ7-16" value="server&lt;br&gt;database&lt;br&gt;username&lt;br&gt;password" style="rounded=1;whiteSpace=wrap;html=1;strokeWidth=2;fillWeight=4;hachureGap=8;hachureAngle=45;fillColor=#99FF99;sketch=1;strokeColor=default;opacity=20;fontStyle=1;fontSize=14;align=left;fontFamily=Comic Sans MS;" vertex="1" parent="1">
          <mxGeometry x="462" y="459" width="188" height="83" as="geometry" />
        </mxCell>
        <mxCell id="4adj82tTuQm2GllREpJ7-17" value="&lt;h1 style=&quot;border-color: var(--border-color); color: rgb(0, 0, 0); font-style: normal; font-variant-ligatures: normal; font-variant-caps: normal; letter-spacing: normal; orphans: 2; text-indent: 0px; text-transform: none; widows: 2; word-spacing: 0px; -webkit-text-stroke-width: 0px; background-color: rgb(251, 251, 251); text-decoration-thickness: initial; text-decoration-style: initial; text-decoration-color: initial; font-size: 16px;&quot;&gt;Arquivo Config.json&lt;/h1&gt;" style="text;whiteSpace=wrap;html=1;fontSize=16;align=center;fontFamily=Comic Sans MS;" vertex="1" parent="1">
          <mxGeometry x="427" y="389" width="250" height="20" as="geometry" />
        </mxCell>
        <mxCell id="4adj82tTuQm2GllREpJ7-18" value="server - Servidor/Instância&lt;br style=&quot;border-color: var(--border-color); font-size: 14px;&quot;&gt;&lt;span style=&quot;font-size: 14px;&quot;&gt;database - Nome da Base de Dados&lt;/span&gt;&lt;br style=&quot;border-color: var(--border-color); font-size: 14px;&quot;&gt;&lt;span style=&quot;font-size: 14px;&quot;&gt;username - Usuário para conexão&lt;/span&gt;&lt;br style=&quot;border-color: var(--border-color); font-size: 14px;&quot;&gt;&lt;span style=&quot;font-size: 14px;&quot;&gt;password - Senha do Usuário&lt;/span&gt;" style="text;whiteSpace=wrap;html=1;fontSize=14;fontFamily=Comic Sans MS;fontStyle=1" vertex="1" parent="1">
          <mxGeometry x="406" y="542" width="330" height="60" as="geometry" />
        </mxCell>
        <mxCell id="4adj82tTuQm2GllREpJ7-19" value="&lt;h1 style=&quot;border-color: var(--border-color); orphans: 2; text-indent: 0px; widows: 2; background-color: rgb(251, 251, 251); text-decoration-thickness: initial; text-decoration-style: initial; text-decoration-color: initial; -webkit-text-stroke-width: 0px; word-spacing: 0px; text-transform: none; letter-spacing: normal; font-variant-caps: normal; font-variant-ligatures: normal; font-style: normal; font-size: 16px; color: rgb(0, 0, 0);&quot;&gt;&lt;span style=&quot;font-weight: normal;&quot;&gt;ConfigSQLServer&lt;/span&gt;&lt;br&gt;&lt;/h1&gt;" style="text;whiteSpace=wrap;html=1;fontSize=16;align=center;fontFamily=Comic Sans MS;" vertex="1" parent="1">
          <mxGeometry x="385" y="418" width="250" height="20" as="geometry" />
        </mxCell>
        <mxCell id="4adj82tTuQm2GllREpJ7-20" value="fromaddr&lt;br&gt;toaddr&lt;br&gt;chave&lt;br&gt;subject&lt;br&gt;filename&lt;br&gt;file&lt;br&gt;image" style="rounded=1;whiteSpace=wrap;html=1;strokeWidth=2;fillWeight=4;hachureGap=8;hachureAngle=45;fillColor=#FFB366;sketch=1;strokeColor=default;opacity=20;fontStyle=1;fontSize=14;align=left;fontFamily=Comic Sans MS;" vertex="1" parent="1">
          <mxGeometry x="94" y="936.5" width="188" height="125" as="geometry" />
        </mxCell>
        <mxCell id="4adj82tTuQm2GllREpJ7-21" value="&lt;h1 style=&quot;border-color: var(--border-color); color: rgb(0, 0, 0); font-style: normal; font-variant-ligatures: normal; font-variant-caps: normal; letter-spacing: normal; orphans: 2; text-indent: 0px; text-transform: none; widows: 2; word-spacing: 0px; -webkit-text-stroke-width: 0px; background-color: rgb(251, 251, 251); text-decoration-thickness: initial; text-decoration-style: initial; text-decoration-color: initial; font-size: 16px;&quot;&gt;Arquivo Config.json&lt;/h1&gt;" style="text;whiteSpace=wrap;html=1;fontSize=16;align=center;fontFamily=Comic Sans MS;" vertex="1" parent="1">
          <mxGeometry x="59" y="866.5" width="250" height="20" as="geometry" />
        </mxCell>
        <mxCell id="4adj82tTuQm2GllREpJ7-22" value="&lt;font style=&quot;font-size: 14px;&quot;&gt;&lt;b&gt;fromaddr - Quem está enviando o e-mail&lt;br style=&quot;border-color: var(--border-color);&quot;&gt;toaddr - Quem irá receber o e-mail&lt;br style=&quot;border-color: var(--border-color);&quot;&gt;chave - Código usado quando a conta é Gmail&lt;br style=&quot;border-color: var(--border-color);&quot;&gt;subject - Assunto do E-mail&lt;br style=&quot;border-color: var(--border-color);&quot;&gt;filename - Nome do Arquivo&amp;nbsp;&lt;br style=&quot;border-color: var(--border-color);&quot;&gt;filePath - Caminho e qual arquivo será enviado&lt;br style=&quot;border-color: var(--border-color);&quot;&gt;imagePath - Caminho e qual imagem será enviada&lt;/b&gt;&lt;/font&gt;" style="text;whiteSpace=wrap;html=1;fontSize=16;fontFamily=Comic Sans MS;" vertex="1" parent="1">
          <mxGeometry x="54" y="1061.5" width="330" height="60" as="geometry" />
        </mxCell>
        <mxCell id="4adj82tTuQm2GllREpJ7-23" value="&lt;h1 style=&quot;border-color: var(--border-color); orphans: 2; text-indent: 0px; widows: 2; background-color: rgb(251, 251, 251); text-decoration-thickness: initial; text-decoration-style: initial; text-decoration-color: initial; -webkit-text-stroke-width: 0px; word-spacing: 0px; text-transform: none; letter-spacing: normal; font-variant-caps: normal; font-variant-ligatures: normal; font-style: normal; font-size: 16px; color: rgb(0, 0, 0);&quot;&gt;&lt;span style=&quot;font-weight: normal;&quot;&gt;ConfigEmail&lt;/span&gt;&lt;br&gt;&lt;/h1&gt;" style="text;whiteSpace=wrap;html=1;fontSize=16;align=center;fontFamily=Comic Sans MS;" vertex="1" parent="1">
          <mxGeometry x="17" y="895.5" width="250" height="20" as="geometry" />
        </mxCell>
        <mxCell id="4adj82tTuQm2GllREpJ7-24" value="username&lt;br&gt;password&lt;br&gt;security_token&lt;br&gt;domain" style="rounded=1;whiteSpace=wrap;html=1;strokeWidth=2;fillWeight=4;hachureGap=8;hachureAngle=45;fillColor=#FFFF33;sketch=1;strokeColor=default;opacity=20;fontStyle=1;fontSize=14;align=left;fontFamily=Comic Sans MS;" vertex="1" parent="1">
          <mxGeometry x="483" y="929" width="188" height="89" as="geometry" />
        </mxCell>
        <mxCell id="4adj82tTuQm2GllREpJ7-25" value="&lt;h1 style=&quot;border-color: var(--border-color); color: rgb(0, 0, 0); font-style: normal; font-variant-ligatures: normal; font-variant-caps: normal; letter-spacing: normal; orphans: 2; text-indent: 0px; text-transform: none; widows: 2; word-spacing: 0px; -webkit-text-stroke-width: 0px; background-color: rgb(251, 251, 251); text-decoration-thickness: initial; text-decoration-style: initial; text-decoration-color: initial; font-size: 16px;&quot;&gt;Arquivo Config.json&lt;/h1&gt;" style="text;whiteSpace=wrap;html=1;fontSize=16;align=center;fontFamily=Comic Sans MS;" vertex="1" parent="1">
          <mxGeometry x="448" y="859" width="250" height="20" as="geometry" />
        </mxCell>
        <mxCell id="4adj82tTuQm2GllREpJ7-26" value="username - Usuário para Conexão&lt;br style=&quot;border-color: var(--border-color); font-size: 14px;&quot;&gt;&lt;span style=&quot;font-size: 14px;&quot;&gt;password - Senha do Usuário&lt;/span&gt;&lt;br style=&quot;border-color: var(--border-color); font-size: 14px;&quot;&gt;&lt;span style=&quot;font-size: 14px;&quot;&gt;security_token - Token de Conexão&lt;/span&gt;&lt;br style=&quot;border-color: var(--border-color); font-size: 14px;&quot;&gt;&lt;span style=&quot;font-size: 14px;&quot;&gt;domain - Nome da Instância&lt;/span&gt;" style="text;whiteSpace=wrap;html=1;fontSize=14;fontFamily=Comic Sans MS;fontStyle=1" vertex="1" parent="1">
          <mxGeometry x="433" y="1021" width="330" height="60" as="geometry" />
        </mxCell>
        <mxCell id="4adj82tTuQm2GllREpJ7-27" value="&lt;h1 style=&quot;border-color: var(--border-color); orphans: 2; text-indent: 0px; widows: 2; background-color: rgb(251, 251, 251); text-decoration-thickness: initial; text-decoration-style: initial; text-decoration-color: initial; -webkit-text-stroke-width: 0px; word-spacing: 0px; text-transform: none; letter-spacing: normal; font-variant-caps: normal; font-variant-ligatures: normal; font-style: normal; font-size: 16px; color: rgb(0, 0, 0);&quot;&gt;&lt;span style=&quot;font-weight: normal;&quot;&gt;ConfigSFE&lt;/span&gt;&lt;br&gt;&lt;/h1&gt;" style="text;whiteSpace=wrap;html=1;fontSize=16;align=center;fontFamily=Comic Sans MS;" vertex="1" parent="1">
          <mxGeometry x="406" y="888" width="250" height="20" as="geometry" />
        </mxCell>
      </root>
    </mxGraphModel>
  </diagram>
</mxfile>
